<svg version="1.1" id="w4p-logo" xmlns="http://www.w3.org/2000/svg" xmlns:xlink="http://www.w3.org/1999/xlink" x="0px" y="0px" viewBox="0 359.6 595.3 122.6" enable-background="new 0 359.6 595.3 122.6" xml:space="preserve"> <g id="w4p-logo-text"> <g> <rect x="258.7" y="445.2" fill="#4D4D4F" width="336.6" height="2.1"></rect> </g> <g> <path fill="#4D4D4F" d="M329.1,382.4l-19.1,47h-3.9l-11.8-24.1l-11.8,24.1h-3.9l-19.1-47H273l8.7,22.2l10.6-23.1h3.9l10.6,23.1
 l8.7-22.2C315.6,382.4,329.1,382.4,329.1,382.4z"></path> <path fill="#4D4D4F" d="M366.7,393.2h-20v6.4H361v10.2h-14.3v8.1h20.8v10.8h-33v-46.3h32v10.8H366.7z"></path> <path fill="#4D4D4F" d="M412.1,414.8c0,4-1.5,7.3-4.4,9.8c-2.9,2.5-6.7,3.9-11.2,3.9h-21.6v-46.3h16.8c4.4,0,8.3,1.3,11.2,3.9
 c2.9,2.5,4.4,5.8,4.4,9.8c0,3.1-1,5.6-2.9,7.7C409.6,405.9,412.1,409.6,412.1,414.8z M386.5,392.6v8.1h4.4c1.5,0,2.5-0.4,3.5-1.2
 c1-0.8,1.2-1.7,1.2-2.9s-0.4-2.1-1.2-2.9c-0.8-0.8-1.9-1.2-3.5-1.2C390.9,392.6,386.5,392.6,386.5,392.6z M400.4,414.4
 c0-2.7-1.5-4-4.6-4h-9.3v8.1h9.3C398.8,418.4,400.4,417.1,400.4,414.4z"></path> <path fill="#ED1C24" d="M455.1,420.2h-5.4v8.5h-12.1v-8.5h-22.7v-3.1l13.3-34.7h12.3l-10.6,27.8h7.9v-11.4h12.1v11.4h5.4v10
 L455.1,420.2L455.1,420.2z"></path> <path fill="#4D4D4F" d="M491.6,386.6c3.3,2.9,5,6.7,5,11.6c0,4.6-1.7,8.5-5,11.6c-3.5,2.9-7.7,4.4-12.7,4.4h-6.2v14.5h-12.1v-46.3
 h18.1C483.9,382.4,488.1,383.7,491.6,386.6z M472.7,392.8v10.8h6.2c1.7,0,3.1-0.6,4-1.5c1-1,1.5-2.3,1.5-4c0-1.5-0.6-2.9-1.5-3.9
 c-1-1-2.3-1.5-4-1.5h-6.2V392.8z"></path> <path fill="#4D4D4F" d="M530.5,428.7l-10.4-14.5h-5v14.5h-12v-46.3h18.1c5.2,0,9.4,1.5,12.9,4.4c3.3,2.9,5,6.7,5,11.6
 c0,5.8-2.5,10.2-7.3,13.1l12.1,17.2C544,428.7,530.5,428.7,530.5,428.7z M515.1,403.8h6.2c1.7,0,3.1-0.6,4-1.5c1-1,1.5-2.3,1.5-4
 c0-1.5-0.6-2.9-1.5-3.9c-0.9-1-2.3-1.5-4-1.5h-6.2V403.8z"></path> <path fill="#4D4D4F" d="M588,388.4c4.8,4.6,7.3,10.2,7.3,17.2c0,6.9-2.5,12.5-7.3,17.2c-4.8,4.6-10.8,6.9-17.7,6.9
 s-12.9-2.3-17.7-6.9c-4.8-4.6-7.1-10.2-7.1-17.2c0-6.9,2.3-12.5,7.1-17.2c4.8-4.6,10.6-6.9,17.7-6.9
 C577.4,381.4,583.1,383.7,588,388.4z M561.2,396.1c-2.3,2.3-3.5,5.4-3.5,9.3c0,3.9,1.2,6.9,3.5,9.4c2.3,2.3,5.4,3.5,9.1,3.5
 c3.7,0,6.7-1.2,9.1-3.5c2.4-2.3,3.7-5.4,3.7-9.4c0-3.9-1.2-6.9-3.7-9.3c-2.3-2.3-5.4-3.7-9.1-3.7
 C566.6,392.6,563.5,393.8,561.2,396.1z"></path> </g> <g> <path fill="#4D4D4F" d="M400.5,471c-0.4,0.9-1,1.5-1.8,1.9c-0.9,0.4-1.7,0.6-2.7,0.6c-1.8,0-3.1-0.6-4.1-1.7
 c-1.1-1.1-1.7-2.5-1.7-4.4c0-1.7,0.6-3.2,1.7-4.4c1.1-1.1,2.4-1.7,4.1-1.7c2.2,0,3.6,0.8,4.5,2.5l0.1,0.3h3.5l-0.3-0.7
 c-0.6-1.6-1.7-2.9-3.1-3.7c-1.5-0.9-3.1-1.3-4.9-1.3c-2.4,0-4.5,0.8-6.3,2.5c-1.7,1.6-2.6,3.8-2.6,6.4c0,2.5,0.9,4.7,2.6,6.4
 c1.8,1.7,3.9,2.5,6.4,2.5c1.7,0,3.4-0.5,4.9-1.3c1.4-0.8,2.4-2,3.1-3.7l0.3-0.7h-3.7L400.5,471z"></path> <path fill="#4D4D4F" d="M416.6,458.8l-6.3,17.5h3.3l1.2-3.6h6.7l1.2,3.6h3.2l-6.3-17.5H416.6z M420.5,470h-4.7l2.3-6.6L420.5,470z"></path> <path fill="#4D4D4F" d="M443.4,467.6c0.9-1,1.2-2.1,1.2-3.6c0-1.5-0.5-2.8-1.6-3.7c-1.1-1-2.6-1.5-4.6-1.5h-5.9v17.5h3.1v-6.7h1.4
 l4.4,6.9h3.9l-4.7-7.1C441.8,469,442.8,468.4,443.4,467.6z M441.4,464.3c0,0.7-0.3,1.4-0.7,1.9c-0.6,0.5-1.2,0.7-2.4,0.7h-2.6
 v-5.2h2.8C440.5,461.6,441.4,462.4,441.4,464.3z"></path> <polygon fill="#4D4D4F" points="452,476.2 461.8,476.2 461.8,473.6 455.1,473.6 455.1,468.8 461,468.8 461,466.1 455.1,466.1
 455.1,461.5 461.8,461.5 461.8,458.7 452,458.7"></polygon> <path fill="#4D4D4F" d="M486.2,458.8l-6.3,17.5h3.3l1.2-3.6h6.6l1.2,3.6h3.3l-6.3-17.5H486.2z M490,470h-4.7l2.3-6.6L490,470z"></path> <path fill="#4D4D4F" d="M511.6,467.2c-0.6-0.2-1.1-0.5-1.9-0.7c-0.3-0.1-0.6-0.1-0.9-0.2c-0.3-0.1-0.7-0.2-1-0.2
 c-0.6-0.1-1.3-0.2-1.6-0.4c-0.4-0.2-0.8-0.4-1.1-0.8c-0.2-0.2-0.3-0.6-0.3-1.1c0-0.7,0.3-1.3,0.8-1.7c0.5-0.4,1.1-0.6,1.9-0.6
 s1.4,0.2,1.9,0.6c0.4,0.3,0.6,0.7,0.7,1.4l0.1,0.4h3.4l-0.1-0.6c-0.2-1.3-0.9-2.5-1.9-3.3c-1-0.9-2.3-1.2-4.2-1.2
 c-1.9,0-3.2,0.4-4.3,1.4c-1.1,1-1.6,2.2-1.6,3.7c0,1,0.2,1.8,0.5,2.4c0.4,0.6,0.8,1.3,1.5,1.6c0.6,0.2,1.1,0.5,1.9,0.7
 c0.3,0.1,0.6,0.1,0.9,0.2c0.3,0.1,0.6,0.2,1,0.2c0.7,0.1,1.2,0.2,1.7,0.4c0.4,0.2,0.8,0.5,1.1,0.8c0.3,0.3,0.3,0.7,0.3,1.4
 c0,0.7-0.2,1.1-0.8,1.6c-0.4,0.4-1.2,0.6-2.1,0.6c-0.9,0-1.6-0.2-2-0.6c-0.4-0.3-0.6-0.7-0.7-1.5l-0.1-0.4h-3.3v0.5
 c0,1.4,0.6,2.6,1.8,3.5c1.1,0.8,2.5,1.2,4.4,1.2c1.9,0,3.3-0.5,4.4-1.6c1.1-1.1,1.6-2.3,1.6-3.7c0-1.1-0.2-1.8-0.5-2.4
 C512.7,468,512.3,467.6,511.6,467.2z"></path> <rect x="532.7" y="458.8" fill="#4D4D4F" width="3.1" height="17.5"></rect> <polygon fill="#4D4D4F" points="542.5,461.5 546.9,461.5 546.9,476.4 550,476.4 550,461.5 554.4,461.5 554.4,458.8 542.5,458.8"></polygon> <rect x="572.9" y="458.8" fill="#4D4D4F" width="3.1" height="17.5"></rect> <path fill="#4D4D4F" d="M594.6,468.6c-0.4-0.6-0.8-1-1.5-1.4c-0.6-0.2-1.1-0.5-1.9-0.7c-0.3-0.1-0.6-0.1-0.9-0.2
 c-0.3-0.1-0.7-0.2-1-0.2c-0.6-0.1-1.3-0.2-1.6-0.4c-0.4-0.2-0.8-0.4-1.1-0.8c-0.2-0.2-0.3-0.6-0.3-1.1c0-0.8,0.2-1.3,0.8-1.7
 c0.5-0.4,1.1-0.6,1.9-0.6c0.9,0,1.4,0.2,1.9,0.6c0.4,0.3,0.6,0.7,0.7,1.4l0.1,0.4h3.4l-0.1-0.6c-0.2-1.3-0.9-2.5-1.9-3.3
 c-1-0.9-2.3-1.2-4.2-1.2c-1.9,0-3.2,0.4-4.3,1.4c-1.1,1-1.6,2.2-1.6,3.7c0,1,0.2,1.8,0.5,2.4c0.4,0.6,0.8,1.3,1.5,1.5
 c0.6,0.2,1.1,0.5,1.9,0.7c0.3,0.1,0.6,0.1,0.9,0.2c0.3,0.1,0.6,0.2,1,0.2c0.7,0.1,1.2,0.2,1.7,0.4c0.4,0.2,0.8,0.5,1.1,0.8
 c0.3,0.3,0.3,0.7,0.3,1.4c0,0.7-0.2,1.1-0.8,1.6c-0.4,0.4-1.2,0.6-2.1,0.6c-0.9,0-1.6-0.2-2-0.6c-0.4-0.3-0.6-0.7-0.7-1.5
 l-0.1-0.4H583v0.5c0,1.4,0.6,2.6,1.8,3.5c1.1,0.8,2.5,1.2,4.4,1.2c1.9,0,3.3-0.5,4.4-1.6c1.1-1.1,1.6-2.3,1.6-3.7
 C595.2,469.9,595,469.2,594.6,468.6z"></path> </g> </g> <g id="w4p-logo-img"> <path fill="#ED1C24" d="M215.5,359.6h-29.9c-4.8,0-10.6,3.7-12.7,7.9l-48.2,97.7l9.4-39.5l-6.4-13.1c-2.1-4.4-7.9-7.9-12.7-7.9H85
 c-4.8,0-7.1,3.7-5,7.9l30.3,61.7c2.1,4.2,7.5,7.7,12.3,7.9h32c4.8,0,10.6-3.7,12.7-7.9L220,367.5
 C222.5,363.3,220.3,359.6,215.5,359.6z"></path> <path fill="#4D4D4F" d="M53.6,474.3c2.1,4.4,7.9,7.9,12.7,7.9H96c4.8,0,7.1-3.7,5-7.9L48.4,367.5c-2.1-4.2-7.9-7.9-12.9-7.9H5.8
 c-4.8,0-7.1,3.7-5,7.9L53.6,474.3z"></path> </g> </svg>